<svg xmlns="http://www.w3.org/2000/svg" version="1.1" xmlns:xlink="http://www.w3.org/1999/xlink" xmlns:svgjs="http://svgjs.dev/svgjs" width="100%" height="100%" viewBox="0 0 1000 600"><rect width="1000" height="600" x="0" y="0" fill="#ee4e34"/><g><rect width="333.3333333333333" height="333.3333333333333" rx="13.333333333333334" ry="13.333333333333334" y="110.6756036823243" fill="#fcedda" transform="matrix(1.413173658203802,0,0,1.4131736582038021,0,-91.93280986757452)" x="88.4533920288086"/><path d="M310.6880383434042 352.34227611193626L198.09321209986 352.34227611193626L198.09321209986 343.5307608163803L200.8066919756438 343.5307608163803Q205.4458672471451 343.5307608163803 209.32643524154554 342.5679131185216Q213.207003235946 341.6342426236282 215.6287110820756 338.57063631225947Q218.05041892820523 335.53620720385607 218.05041892820523 329.4381717840839L218.05041892820523 329.4381717840839L218.05041892820523 226.29675930133476Q218.05041892820523 219.58600261928888 215.71624269097185 216.43486469902382Q213.41124365670393 213.2837267787588 209.53067566230345 212.23334747200377Q205.650107667903 211.18296816524875 200.8066919756438 211.18296816524875L200.8066919756438 211.18296816524875L198.09321209986 211.18296816524875L198.09321209986 202.34227566672743L303.9481044583929 202.34227566672743L304.99848376514785 239.10555140315284L294.08620985608195 239.10555140315284L293.0358305493269 230.08979568683898Q292.62734970781105 225.45062041533768 290.61412270319727 221.5700524209372Q288.63007290154894 217.68948442653675 284.74950490714843 215.26777658040714Q280.8397597097826 212.84606873427754 274.5374838692526 212.84606873427754L274.5374838692526 212.84606873427754L239.26224548406338 212.84606873427754L239.26224548406338 268.72041241305106L289.8846926290619 268.72041241305106L289.8846926290619 279.0199650598433L239.26224548406338 279.0199650598433L239.26224548406338 341.8384830443862L279.7893804030276 341.8384830443862Q286.5293142880389 341.8384830443862 290.61412270319727 339.41677519825646Q294.7281083213211 336.99506735212685 296.9163985437274 333.11449935772646Q299.133865969099 329.23393136332595 299.7465872313728 324.62393329479005L299.7465872313728 324.62393329479005L301.23462458260906 315.5790003755109L312.1468984916751 315.5790003755109L310.6880383434042 352.34227611193626Z " fill="#ee4e34" transform="matrix(1.413173658203802,0,0,1.4131736582038021,0,-91.93280986757452)"/><path d="M617.7148823680624 352.34227611193626L505.1200561245182 352.34227611193626L505.1200561245182 343.5307608163803L507.833536000302 343.5307608163803Q512.4727112718033 343.5307608163803 516.3532792662038 342.5679131185216Q520.2338472606042 341.6342426236282 522.6555551067338 338.57063631225947Q525.0772629528634 335.53620720385607 525.0772629528634 329.4381717840839L525.0772629528634 329.4381717840839L525.0772629528634 226.29675930133476Q525.0772629528634 219.58600261928888 522.74308671563 216.43486469902382Q520.438087681362 213.2837267787588 516.5575196869617 212.23334747200377Q512.6769516925613 211.18296816524875 507.833536000302 211.18296816524875L507.833536000302 211.18296816524875L505.1200561245182 211.18296816524875L505.1200561245182 202.34227566672743L610.9749484830511 202.34227566672743L612.025327789806 239.10555140315284L601.1130538807402 239.10555140315284L600.0626745739851 230.08979568683898Q599.6541937324693 225.45062041533768 597.6409667278556 221.5700524209372Q595.6569169262071 217.68948442653675 591.7763489318068 215.26777658040714Q587.8666037344408 212.84606873427754 581.5643278939108 212.84606873427754L581.5643278939108 212.84606873427754L546.2890895087216 212.84606873427754L546.2890895087216 268.72041241305106L596.9115366537201 268.72041241305106L596.9115366537201 279.0199650598433L546.2890895087216 279.0199650598433L546.2890895087216 341.8384830443862L586.8162244276858 341.8384830443862Q593.5561583126971 341.8384830443862 597.6409667278556 339.41677519825646Q601.7549523459793 336.99506735212685 603.9432425683856 333.11449935772646Q606.1607099937572 329.23393136332595 606.773431256031 324.62393329479005L606.773431256031 324.62393329479005L608.2614686072673 315.5790003755109L619.1737425163333 315.5790003755109L617.7148823680624 352.34227611193626Z " fill="#fcedda" transform="matrix(1.413173658203802,0,0,1.4131736582038021,0,-91.93280986757452)"/></g></svg>